<?xml version="1.0" encoding="UTF-8"?>
<svg id="Layer_2" data-name="Layer 2" xmlns="http://www.w3.org/2000/svg" viewBox="0 0 1964.36 507.85">
  <defs>
    <style>
      .cls-1 {
        fill: #fff;
      }

      .cls-2 {
        fill: #d94426;
      }
    </style>
  </defs>
  <g id="Layer_1-2" data-name="Layer 1">
    <g>
      <path class="cls-2" d="M566.52,138.15h107.5l124.41,231.9h-101.8l-18.29-39.69h-116.12l-18.29,39.69h-101.8l124.41-231.9ZM588.43,273.77h63.67l-31.75-68.5-31.92,68.5Z"/>
      <path class="cls-2" d="M895.75,290.51v79.2h-90.41v-231.9h90.41v79.2h39.51l85.07-79.2h118.71l-120.26,115.95,120.26,115.95h-118.71l-85.07-79.2h-39.51Z"/>
      <path class="cls-2" d="M1242.07,137.8v231.9h-90.41v-231.9h90.41Z"/>
      <path class="cls-2" d="M1513.49,137.98c47.8-.52,88.34,39.69,87.65,87.65,0,17.43-4.66,33.3-13.98,47.45-9.15,13.98-21.4,24.67-36.58,31.75l50.56,65.05h-96.28l-43.65-56.6h-80.75v56.6h-90.41v-231.9h223.45ZM1380.46,205.79v39.51h110.26c5.52,0,10.18-1.9,13.98-5.69s5.87-8.63,5.87-13.98c0-11.04-8.8-19.84-19.84-19.84h-110.26Z"/>
      <path class="cls-2" d="M1732.46,138.15h107.5l124.41,231.9h-101.8l-18.29-39.69h-116.12l-18.29,39.69h-101.8l124.41-231.9ZM1754.38,273.77h63.67l-31.75-68.5-31.92,68.5Z"/>
    </g>
    <g>
      <path class="cls-1" d="M200,.31h0c29.05-1.32,57.77,1.54,85.17,9.46,12.1,3.52,23.77,7.37,34.88,12.65,3.63,1.65,7.81,3.08,11,5.17,4.18,2.64,8.91,5.06,13.31,7.48,8.14,4.73,16.18,10.45,23.44,16.07,5.94,4.62,10.67,10.23,16.51,14.86,1.87,1.54,2.86,3.41,4.62,4.95,3.19,2.75,5.61,6.05,8.14,9.24,6.16,7.59,11.66,15.74,16.29,23.99l4.84,9.79c6.6,11.99,9.79,25.97,11.77,38.95.99,6.16,1.87,12.65,1.87,18.93.11,12.43-5.61,24.65-16.51,33.45-6.49,5.28-16.73,9.57-25.64,11.22-10.45,1.87-21.02,1.76-31.69,1.76H69.38c-7.48,0-15.52.44-22.89-.66-10.67-1.65-18.6-5.5-26.85-10.89-10.89-7.15-17.72-19.7-19.15-30.92-2.31-18.49,3.74-37.96,11-55.35,3.41-8.25,7.37-16.73,12.21-24.43,7.26-11.33,16.07-21.9,25.97-31.8C81.93,32,127.81,10.21,177.77,2.29c7.48-.99,14.97-1.43,22.23-1.98Z"/>
      <g>
        <path class="cls-1" d="M27.29,264.65l13.77,21.88,14.48,22.99c3.83,5.84,7.75,11.65,11.16,17.79l5.55,11.87,7.96,16.27c3.33,7.17,7.27,14.49,9.59,22.11.43,1.45.55,2.93.98,4.38.31,1.18.89,2.23,1.2,3.41.7,2.54.98,5.37,1.54,8.08,1.91,9.88,3.21,20.59,2.42,31.03v.38c-.12,3.38,3.75,5.47,6.45,3.43.02-.02.04-.03.06-.05,10.94-7.87,20.5-18.3,25.63-29.59,5.32-11.59,7.98-23.97,6.68-35.66-1.32-11.25-5.67-20.69-10.17-30.73l-10.21-22.49-21.99-49c-.67-1.49-2.14-2.44-3.77-2.44H30.78c-3.24,0-5.22,3.56-3.52,6.31l.03.04Z"/>
        <path class="cls-1" d="M317.46,309.74l-10.21,22.49c-4.5,10.04-8.85,19.48-10.17,30.73-1.3,11.69,1.36,24.07,6.68,35.66,5.13,11.29,14.69,21.72,25.63,29.59.02.02.04.03.06.05,2.7,2.03,6.56-.05,6.46-3.43v-.38c-.81-10.44.49-21.15,2.41-31.03.56-2.71.84-5.54,1.54-8.08.31-1.18.89-2.23,1.2-3.41.43-1.45.55-2.93.98-4.38,2.32-7.62,6.27-14.94,9.59-22.11l7.96-16.27,5.55-11.87c3.41-6.14,7.33-11.94,11.16-17.79l14.48-22.99,13.77-21.88.04-.06c1.7-2.75-.28-6.29-3.51-6.29h-57.87c-1.63,0-3.11.96-3.77,2.44l-21.99,49Z"/>
        <path class="cls-1" d="M190.91,281.4v133.6c-.1,3.6-.9,7.1-1.1,10.6l-.59,11.58c0,.08-.01.16-.02.25-1.7,16.16-4.9,32.72-9.79,48.48l-4.6,13.6c-.35.89-.72,1.8-1.1,2.72-1.24,2.99,1.34,6.17,4.53,5.56l11.48-2.18c6.9-1.58,13.6-3.64,20.01-6.09.2-.07.38-.16.57-.26,4.42-2.46,9.09-5.22,12.33-8.65,1.2-1.2,2.5-2.2,3.6-3.5,6.1-7.4,9.9-16.2,11.9-24.9,3.6-15.6,3.5-32.2,3.5-48.1v-36.2l.24-115.46c0-2.29-1.85-4.14-4.13-4.14h-42.67c-2.28,0-4.13,1.85-4.13,4.13v18.97Z"/>
      </g>
    </g>
  </g>
</svg>