<?xml version="1.0" encoding="utf-8"?>
<svg version="1.1" id="Layer_1" xmlns="http://www.w3.org/2000/svg" xmlns:xlink="http://www.w3.org/1999/xlink" x="0px" y="0px"
	 viewBox="0 0 512.6 512.6" style="enable-background:new 0 0 512.6 512.6;" xml:space="preserve">
<style type="text/css">
	.st0{fill:#FFFFFF;stroke:#000000;stroke-width:9;stroke-miterlimit:10;}
</style>
<path class="st0" d="M179.5,222.8l6,0l0.9,128.7c0,12.9-3.8,25-12.3,36c-2,2.6-4.5,5.6-7.1,7.8c-2.1,1.7-3.9,3.7-6.1,5.4
	c-7.7,6-17.6,11.2-27.7,14.1c-4.3,1.2-8.7,1.9-13.1,2.8l-0.5-0.3c0-0.9,0.5-1.7,1-2.5c6.4-12,11-24.5,13.6-37.4
	c2.6-12.9,2.6-25.9,2.5-39l-1.4-31.5l-2-27.8c-0.2-1.3-0.6-2.6-0.8-3.9L130,261l-5.9-38.1L179.5,222.8z"/>
<path class="st0" d="M327.7,222.9l62.3,0c-1.2,4.4-1.6,9-2.2,13.5l-3.6,25.6l-3.8,26.9c-1.1,6.9-2.3,13.8-2.9,20.8l-0.2,13.1
	l-0.6,18.1c-0.1,7.9-0.7,16.2,0.3,24.1c0.2,1.5,0.7,2.9,0.9,4.4c0.2,1.2,0.1,2.4,0.3,3.6c0.4,2.6,1.3,5.3,1.9,8
	c2.3,9.8,5.5,20.1,10.5,29.3l3.6,7.4c-2.7-0.5-5.4-0.7-8-1.3c-13.2-2.7-26.2-8.3-35.5-16.5c-9.6-8.4-17.1-18.6-20.7-29.8
	c-3.4-10.8-3.3-21.2-3.3-32.2l0.1-24.7l0-87.1C326.7,224.6,326.6,223.8,327.7,222.9z"/>
<path class="st0" d="M232.1,222.9l50-0.1l-0.3,145.4l0,36.2c0,15.9,0.1,32.5-3.5,48.1c-2,8.7-5.8,17.5-11.9,24.9
	c-1.1,1.3-2.4,2.3-3.6,3.5c-3.3,3.5-8.1,6.3-12.6,8.8c-6.5,2.5-13.3,4.6-20.3,6.2l-18.4,3.5c0.7-3.2,2.3-6.5,3.5-9.6l4.6-13.6
	c4.9-15.8,8.1-32.4,9.8-48.6l0.6-11.7c0.2-3.5,1-7,1.1-10.6l0-45.4l0-88.2l0-32.2c0-5.2-0.5-10.6,0-15.7L232.1,222.9z"/>
<path class="st0" d="M241.9,19.6L241.9,19.6c26.4-1.2,52.5,1.4,77.4,8.6c11,3.2,21.6,6.7,31.7,11.5c3.3,1.5,7.1,2.8,10,4.7
	c3.8,2.4,8.1,4.6,12.1,6.8c7.4,4.3,14.7,9.5,21.3,14.6c5.4,4.2,9.7,9.3,15,13.5c1.7,1.4,2.6,3.1,4.2,4.5c2.9,2.5,5.1,5.5,7.4,8.4
	c5.6,6.9,10.6,14.3,14.8,21.8l4.4,8.9c6,10.9,8.9,23.6,10.7,35.4c0.9,5.6,1.7,11.5,1.7,17.2c0.1,11.3-5.1,22.4-15,30.4
	c-5.9,4.8-15.2,8.7-23.3,10.2c-9.5,1.7-19.1,1.6-28.8,1.6l-26.6,0l-87.7,0l-116.7,0l-31.3,0c-6.8,0-14.1,0.4-20.8-0.6
	c-9.7-1.5-16.9-5-24.4-9.9c-9.9-6.5-16.1-17.9-17.4-28.1c-2.1-16.8,3.4-34.5,10-50.3c3.1-7.5,6.7-15.2,11.1-22.2
	c6.6-10.3,14.6-19.9,23.6-28.9c29.3-29.3,71-49.1,116.4-56.3C228.5,20.5,235.3,20.1,241.9,19.6z"/>
</svg>
